<svg width="720" height="552" xmlns="http://www.w3.org/2000/svg" xmlns:xlink="http://www.w3.org/1999/xlink" xml:space="preserve" overflow="hidden"><defs><clipPath id="clip0"><path d="M592.212 486.146 549.283 432.428 549.214 432.483C536.725 417.236 517.754 407.503 496.508 407.503 470.428 407.503 447.781 422.171 436.34 443.7L435.893 443.546 434.025 448.505C433.14 450.543 432.352 452.632 431.666 454.767L369.833 618.114 563.896 618.114 563.401 509.003 592.212 486.146Z" fill-rule="evenodd" clip-rule="evenodd"/></clipPath></defs><g transform="translate(-280 -84)"><g><path d="M364.574 617.673C364.944 617.537 365.317 617.411 365.685 617.276 365.794 617.409 365.907 617.539 366.016 617.673L616.898 617.673C639.941 589.661 653.9 553.979 653.9 515.388 653.9 455.69 621.631 403.534 573.585 375.401 536.278 353.556 504.751 323.019 482.562 285.917 442.262 218.53 368.232 173.643 283.786 174.588 157.98 175.998 56.301 280.347 58.0025 406.148 59.3185 503.463 121.491 586.078 208.188 617.673L364.574 617.673Z" fill="#FFFFFF" fill-rule="nonzero" fill-opacity="1" transform="matrix(1 0 0 1.00001 280 -0.00313046)"/><path d="M606.068 351.111 453.252 351.111 453.252 241.749 620.463 241.749 606.068 351.111Z" stroke="#1D1D1B" stroke-width="0.718618" stroke-linecap="butt" stroke-linejoin="miter" stroke-miterlimit="10" stroke-opacity="1" fill="#F58437" fill-rule="nonzero" fill-opacity="1" transform="matrix(1 0 0 1.00001 280 -0.00313046)"/><path d="M606.068 351.111 453.251 351.111 453.251 241.749 572.57 241.749C591.07 241.749 606.068 256.746 606.068 275.247L606.068 351.111Z" stroke="#1D1D1B" stroke-width="0.718618" stroke-linecap="butt" stroke-linejoin="miter" stroke-miterlimit="10" stroke-opacity="1" fill="#E66821" fill-rule="nonzero" fill-opacity="1" transform="matrix(1 0 0 1.00001 280 -0.00313046)"/><path d="M542.028 93.2635 637.439 93.2635 637.439 205.656 542.028 205.656Z" stroke="#1D1D1B" stroke-width="0.718618" stroke-linecap="butt" stroke-linejoin="miter" stroke-miterlimit="10" stroke-opacity="1" fill="#F58437" fill-rule="evenodd" fill-opacity="1" transform="matrix(1 0 0 1.00001 280 -0.00313046)"/><path d="M564.005 118.586 615.46 118.586" stroke="#1D1D1B" stroke-width="0.718618" stroke-linecap="butt" stroke-linejoin="miter" stroke-miterlimit="10" stroke-opacity="1" fill="none" fill-rule="nonzero" transform="matrix(1 0 0 1.00001 280 -0.00313046)"/><path d="M564.005 134.024 615.46 134.024" stroke="#1D1D1B" stroke-width="0.718618" stroke-linecap="butt" stroke-linejoin="miter" stroke-miterlimit="10" stroke-opacity="1" fill="none" fill-rule="nonzero" transform="matrix(1 0 0 1.00001 280 -0.00313046)"/><path d="M564.005 149.46 615.46 149.46" stroke="#1D1D1B" stroke-width="0.718618" stroke-linecap="butt" stroke-linejoin="miter" stroke-miterlimit="10" stroke-opacity="1" fill="none" fill-rule="nonzero" transform="matrix(1 0 0 1.00001 280 -0.00313046)"/><path d="M564.005 164.896 615.46 164.896" stroke="#1D1D1B" stroke-width="0.718618" stroke-linecap="butt" stroke-linejoin="miter" stroke-miterlimit="10" stroke-opacity="1" fill="none" fill-rule="nonzero" transform="matrix(1 0 0 1.00001 280 -0.00313046)"/><path d="M564.005 180.334 615.46 180.334" stroke="#1D1D1B" stroke-width="0.718618" stroke-linecap="butt" stroke-linejoin="miter" stroke-miterlimit="10" stroke-opacity="1" fill="none" fill-rule="nonzero" transform="matrix(1 0 0 1.00001 280 -0.00313046)"/><path d="M517.761 188.236 355.503 188.236 355.503 273.229 375.536 273.229 375.536 292.716 387.632 273.229 517.761 273.229 517.761 188.235Z" stroke="#1D1D1B" stroke-width="0.718618" stroke-linecap="butt" stroke-linejoin="miter" stroke-miterlimit="10" stroke-opacity="1" fill="#FFFFFF" fill-rule="nonzero" fill-opacity="1" transform="matrix(1 0 0 1.00001 280 -0.00313046)"/><path d="M635.359 318.2 523.102 318.2 523.102 376.999 536.962 376.999 536.962 390.482 545.33 376.999 635.359 376.999 635.359 318.2Z" stroke="#1D1D1B" stroke-width="0.718618" stroke-linecap="butt" stroke-linejoin="miter" stroke-miterlimit="10" stroke-opacity="1" fill="#FFFFFF" fill-rule="nonzero" fill-opacity="1" transform="matrix(1 0 0 1.00001 280 -0.00313046)"/><path d="M214.183 347.69C182.849 348.82 157.097 373.995 155.295 405.298 155.269 405.747 155.247 406.194 155.231 406.641 154.82 417.997 146.434 427.3 135.266 429.403 103.215 435.44 73.7461 466.232 73.7461 496.847 73.7461 535.793 106.022 567.201 145.286 565.782 180.337 564.515 209.207 536.561 211.55 501.565 212.323 490.023 210.233 479.049 205.952 469.253 209.364 469.844 212.867 470.168 216.448 470.168 250.28 470.168 277.706 442.742 277.706 408.91 277.707 374.325 249.049 346.433 214.183 347.69Z" fill="#3039A6" fill-rule="nonzero" fill-opacity="1" transform="matrix(1 0 0 1.00001 280 -0.00313046)"/><path d="M357.063 330.049C388.396 331.179 414.15 356.354 415.952 387.656 415.978 388.106 415.999 388.553 416.015 389 416.427 400.356 424.812 409.658 435.98 411.762 468.031 417.799 497.5 448.591 497.5 479.205 497.5 518.152 465.225 549.56 425.961 548.141 390.91 546.874 362.04 518.919 359.696 483.924 358.923 472.382 361.013 461.408 365.295 451.612 361.883 452.202 358.379 452.527 354.799 452.527 320.967 452.527 293.541 425.1 293.541 391.268 293.538 356.682 322.198 328.792 357.063 330.049Z" fill="#3039A6" fill-rule="nonzero" fill-opacity="1" transform="matrix(1 0 0 1.00001 280 -0.00313046)"/><path d="M284.611 475.608C284.611 437.995 254.12 407.503 216.507 407.503 190.427 407.503 167.78 422.17 156.338 443.699L155.892 443.545 154.023 448.504C153.138 450.542 152.351 452.631 151.664 454.766L89.8331 618.113 283.896 618.113 283.441 488.143C284.198 484.078 284.611 479.893 284.611 475.608Z" fill="#01BCFF" fill-rule="nonzero" fill-opacity="1" transform="matrix(1 0 0 1.00001 280 -0.00313046)"/><path d="M182.924 501.236 269.283 432.429 336.334 516.331 243.305 588.648 182.924 501.236Z" fill="#FF9492" fill-rule="nonzero" fill-opacity="1" transform="matrix(1 0 0 1.00001 280 -0.00313046)"/><path d="M221.96 557.748 312.212 486.148 269.283 432.43 182.924 501.237 221.96 557.748Z" fill="#01BCFF" fill-rule="nonzero" fill-opacity="1" transform="matrix(1 0 0 1.00001 280 -0.00313046)"/><g clip-path="url(#clip0)"><path d="M124.841 558.674C124.833 558.478 124.821 558.282 124.808 558.086 123.808 543.299 111.059 531.605 96.2406 531.871 80.9496 532.146 68.6387 544.626 68.6387 559.983 68.6387 570.259 74.1552 579.232 82.3878 584.128 88.5735 587.806 92.5912 594.167 92.9266 601.354 92.9353 601.55 92.9467 601.746 92.9598 601.942 93.9604 616.729 106.707 628.424 121.527 628.157 136.818 627.883 149.129 615.402 149.129 600.045 149.129 589.769 143.613 580.796 135.38 575.901 129.196 572.223 125.178 565.861 124.841 558.674Z" stroke="#FFFFFF" stroke-width="0.718618" stroke-linecap="butt" stroke-linejoin="miter" stroke-miterlimit="10" stroke-opacity="1" fill="none" fill-rule="nonzero" transform="matrix(1 0 0 1.00001 280 -0.00313046)"/><path d="M166.353 447.067C166.384 446.874 166.412 446.68 166.44 446.484 168.446 431.799 158.322 417.771 143.755 415.039 128.723 412.219 114.146 421.957 111.043 436.997 108.967 447.061 112.559 456.964 119.633 463.42 124.948 468.271 127.598 475.314 126.475 482.421 126.445 482.613 126.416 482.808 126.389 483.004 124.382 497.688 134.505 511.717 149.073 514.449 164.105 517.269 178.683 507.531 181.783 492.49 183.859 482.426 180.268 472.524 173.194 466.067 167.881 461.218 165.23 454.175 166.353 447.067Z" stroke="#FFFFFF" stroke-width="0.718618" stroke-linecap="butt" stroke-linejoin="miter" stroke-miterlimit="10" stroke-opacity="1" fill="none" fill-rule="nonzero" transform="matrix(1 0 0 1.00001 280 -0.00313046)"/><path d="M252.446 556.922C252.544 556.752 252.641 556.582 252.736 556.41 259.899 543.433 255.508 526.7 242.905 518.904 229.899 510.858 212.791 514.689 204.479 527.602 198.917 536.242 198.7 546.773 202.972 555.345 206.182 561.785 206.118 569.309 202.51 575.535 202.412 575.705 202.316 575.875 202.221 576.048 195.057 589.024 199.448 605.757 212.051 613.554 225.058 621.599 242.165 617.769 250.477 604.856 256.039 596.216 256.257 585.684 251.984 577.113 248.774 570.673 248.839 563.148 252.446 556.922Z" stroke="#FFFFFF" stroke-width="0.718618" stroke-linecap="butt" stroke-linejoin="miter" stroke-miterlimit="10" stroke-opacity="1" fill="none" fill-rule="nonzero" transform="matrix(1 0 0 1.00001 280 -0.00313046)"/><path d="M277.218 449.554C277.414 449.551 277.609 449.546 277.807 449.54 292.618 449.006 304.707 436.631 304.909 421.812 305.116 406.519 293.028 393.821 277.68 393.337 267.409 393.013 258.267 398.246 253.116 406.319 249.245 412.385 242.76 416.201 235.565 416.311 235.369 416.314 235.173 416.32 234.976 416.325 220.165 416.859 208.075 429.234 207.874 444.054 207.666 459.346 219.754 472.044 235.103 472.528 245.374 472.852 254.516 467.619 259.667 459.546 263.538 453.48 270.023 449.663 277.218 449.554Z" stroke="#FFFFFF" stroke-width="0.718618" stroke-linecap="butt" stroke-linejoin="miter" stroke-miterlimit="10" stroke-opacity="1" fill="none" fill-rule="nonzero" transform="matrix(1 0 0 1.00001 280 -0.00313046)"/></g><path d="M182.924 501.236 243.305 588.648" stroke="#1D1D1B" stroke-width="0.718618" stroke-linecap="butt" stroke-linejoin="miter" stroke-miterlimit="10" stroke-opacity="1" fill="none" fill-rule="nonzero" transform="matrix(1 0 0 1.00001 280 -0.00313046)"/><path d="M188.699 530.737 210.8 542.598" stroke="#1D1D1B" stroke-width="0.718618" stroke-linecap="butt" stroke-linejoin="miter" stroke-miterlimit="10" stroke-opacity="1" fill="none" fill-rule="nonzero" transform="matrix(1 0 0 1.00001 280 -0.00313046)"/><path d="M474.506 505.589 475.091 505.258 396.11 410.263C391.896 405.194 389.057 399.128 387.865 392.646L378.857 343.637C377.308 335.214 372.248 327.848 364.939 323.384L340.346 308.358 321.546 414.027 356.147 550.988C356.829 556.414 358.168 561.594 360.058 566.472L360.887 569.757 361.323 569.51C372.742 595.039 399.835 611.26 429.025 607.601 464.793 603.116 490.155 570.485 485.671 534.717 484.312 523.866 480.349 513.982 474.506 505.589Z" fill="#FF9492" fill-rule="nonzero" fill-opacity="1" transform="matrix(1 0 0 1.00001 280 -0.00313046)"/><path d="M361.843 346.54C361.843 378.013 336.329 403.527 304.856 403.527 273.383 403.527 247.869 378.013 247.869 346.54 247.869 315.067 273.383 289.553 304.856 289.553 336.329 289.553 361.843 315.067 361.843 346.54Z" stroke="#1D1D1B" stroke-width="0.718618" stroke-linecap="butt" stroke-linejoin="miter" stroke-miterlimit="10" stroke-opacity="1" fill="#FF9492" fill-rule="evenodd" fill-opacity="1" transform="matrix(1 0 0 1.00001 280 -0.00313046)"/><path d="M320.766 310.252C320.647 299.428 311.876 290.321 301.064 289.818 289.189 289.267 279.39 298.73 279.39 310.484 279.39 311.008 279.43 311.521 279.468 312.035 277.828 311.751 276.151 311.572 274.43 311.572 257.667 311.572 244.183 325.599 245.072 342.554 245.849 357.394 258.006 369.551 272.846 370.329 289.802 371.218 303.829 357.733 303.829 340.971L303.829 340.867C303.811 335.668 306.39 330.862 310.831 328.157 316.85 324.491 320.847 317.836 320.766 310.252Z" fill="#3039A6" fill-rule="nonzero" fill-opacity="1" transform="matrix(1 0 0 1.00001 280 -0.00313046)"/><path d="M335.632 329.396C335.509 329.764 332.896 339.576 331.336 345.442 330.605 348.194 331.061 351.122 332.593 353.523L336.414 359.518C337.929 361.892 337.258 365.041 334.909 366.594L329.313 370.291" stroke="#1D1D1B" stroke-width="0.718618" stroke-linecap="butt" stroke-linejoin="miter" stroke-miterlimit="10" stroke-opacity="1" fill="none" fill-rule="nonzero" transform="matrix(1 0 0 1.00001 280 -0.00313046)"/><path d="M317.027 349.317C317.027 352.856 315.416 355.725 313.428 355.725 311.44 355.725 309.829 352.856 309.829 349.317 309.829 345.779 311.44 342.91 313.428 342.91 315.416 342.91 317.027 345.779 317.027 349.317Z" fill="#1D1D1B" fill-rule="evenodd" fill-opacity="1" transform="matrix(1 0 0 1.00001 280 -0.00313046)"/><path d="M346.163 349.317C346.163 352.856 344.552 355.725 342.564 355.725 340.577 355.725 338.965 352.856 338.965 349.317 338.965 345.779 340.577 342.91 342.564 342.91 344.552 342.91 346.163 345.779 346.163 349.317Z" fill="#1D1D1B" fill-rule="evenodd" fill-opacity="1" transform="matrix(1 0 0 1.00001 280 -0.00313046)"/><path d="M312.478 331.627 322.824 325.13" stroke="#1D1D1B" stroke-width="2.87793" stroke-linecap="round" stroke-linejoin="miter" stroke-miterlimit="10" stroke-opacity="1" fill="none" fill-rule="nonzero" transform="matrix(1 0 0 1.00001 280 -0.00313046)"/><path d="M341.424 325.886 350.077 332.031" stroke="#1D1D1B" stroke-width="2.87793" stroke-linecap="round" stroke-linejoin="miter" stroke-miterlimit="10" stroke-opacity="1" fill="none" fill-rule="nonzero" transform="matrix(1 0 0 1.00001 280 -0.00313046)"/><path d="M321.574 380.073 323.894 378.18C325.579 376.804 327.941 376.614 329.826 377.702L330.387 378.026C332.409 379.192 334.922 379.076 336.826 377.728L339.227 376.029" stroke="#1D1D1B" stroke-width="0.718618" stroke-linecap="round" stroke-linejoin="miter" stroke-miterlimit="10" stroke-opacity="1" fill="none" fill-rule="nonzero" transform="matrix(1 0 0 1.00001 280 -0.00313046)"/><path d="M348.823 307.635 244.795 340.517 266.482 258.901C270.325 244.434 288.721 240.057 298.668 251.243L348.823 307.635Z" fill="#F58437" fill-rule="nonzero" fill-opacity="1" transform="matrix(1 0 0 1.00001 280 -0.00313046)"/><path d="M252.042 311.829 331.431 287.326" stroke="#1D1D1B" stroke-width="0.718618" stroke-linecap="butt" stroke-linejoin="miter" stroke-miterlimit="10" stroke-opacity="1" fill="none" fill-rule="nonzero" transform="matrix(1 0 0 1.00001 280 -0.00313046)"/><path d="M354.217 555.291 354.238 555.295 344.511 425.011C343.328 409.158 335.543 394.529 323.053 384.691L291.401 359.759 291.401 339.241C291.401 333.441 287.16 328.318 281.393 327.704 276.776 327.213 272.664 329.531 270.513 333.15L270.513 332.079C270.513 326.21 266.183 321.032 260.34 320.492 257.006 320.184 253.951 321.346 251.714 323.39 249.85 319.767 246.081 317.284 241.727 317.284 236.435 317.284 232.01 320.947 230.819 325.872 228.82 324.859 226.485 324.409 224.013 324.789 218.477 325.64 214.521 330.64 214.521 336.241L214.521 363.096C214.521 364.262 214.699 365.387 215.029 366.444L215.418 369.087C216.742 378.09 221.956 386.056 229.678 390.873L269.285 415.577 241.552 531.775C241.552 531.775 235.468 549.324 235.468 559.156 235.468 591.987 262.082 618.601 294.912 618.601 327.742 618.601 354.356 591.987 354.356 559.156 354.355 557.858 354.299 556.571 354.217 555.291Z" stroke="#1D1D1B" stroke-width="0.718618" stroke-linecap="butt" stroke-linejoin="miter" stroke-miterlimit="10" stroke-opacity="1" fill="#FF9492" fill-rule="nonzero" fill-opacity="1" transform="matrix(1 0 0 1.00001 280 -0.00313046)"/><path d="M230.492 361.168 230.492 328.519C230.492 322.315 235.522 317.285 241.726 317.285 246.081 317.285 249.858 319.764 251.722 323.387" stroke="#1D1D1B" stroke-width="0.718618" stroke-linecap="butt" stroke-linejoin="miter" stroke-miterlimit="10" stroke-opacity="1" fill="none" fill-rule="nonzero" transform="matrix(1 0 0 1.00001 280 -0.00313046)"/><path d="M248.044 361.168 248.044 331.679C248.044 325.475 253.074 320.445 259.278 320.445 265.483 320.445 270.512 325.475 270.512 331.679L270.512 333.151" stroke="#1D1D1B" stroke-width="0.718618" stroke-linecap="butt" stroke-linejoin="miter" stroke-miterlimit="10" stroke-opacity="1" fill="none" fill-rule="nonzero" transform="matrix(1 0 0 1.00001 280 -0.00313046)"/><path d="M268.932 361.168 268.932 338.876C268.932 332.672 273.962 327.642 280.166 327.642 286.37 327.642 291.4 332.672 291.4 338.876L291.4 361.168" stroke="#1D1D1B" stroke-width="0.718618" stroke-linecap="butt" stroke-linejoin="miter" stroke-miterlimit="10" stroke-opacity="1" fill="none" fill-rule="nonzero" transform="matrix(1 0 0 1.00001 280 -0.00313046)"/><path d="M277.588 609.661 588.386 609.661 588.386 618.555 277.588 618.555Z" stroke="#1D1D1B" stroke-width="0.718618" stroke-linecap="butt" stroke-linejoin="miter" stroke-miterlimit="10" stroke-opacity="1" fill="#FFFFFF" fill-rule="evenodd" fill-opacity="1" transform="matrix(1 0 0 1.00001 280 -0.00313046)"/><path d="M585.045 609.661 397.312 609.661C393.783 609.661 391.379 606.087 392.71 602.819L457.414 443.784C458.175 441.912 459.995 440.688 462.016 440.688L649.748 440.688C653.276 440.688 655.68 444.262 654.35 447.53L589.647 606.565C588.886 608.436 587.066 609.661 585.045 609.661Z" stroke="#1D1D1B" stroke-width="0.718618" stroke-linecap="butt" stroke-linejoin="miter" stroke-miterlimit="10" stroke-opacity="1" fill="#FFFFFF" fill-rule="nonzero" fill-opacity="1" transform="matrix(1 0 0 1.00001 280 -0.00313046)"/><path d="M594.746 609.661 407.015 609.661C403.486 609.661 401.082 606.087 402.412 602.819L467.117 443.784C467.878 441.912 469.698 440.688 471.719 440.688L659.451 440.688C662.979 440.688 665.383 444.262 664.053 447.53L599.349 606.565C598.587 608.436 596.767 609.661 594.746 609.661Z" stroke="#1D1D1B" stroke-width="0.718618" stroke-linecap="butt" stroke-linejoin="miter" stroke-miterlimit="10" stroke-opacity="1" fill="#FFFFFF" fill-rule="nonzero" fill-opacity="1" transform="matrix(1 0 0 1.00001 280 -0.00313046)"/><path d="M79.598 618.115 630.484 618.115" stroke="#1D1D1B" stroke-width="1.44069" stroke-linecap="butt" stroke-linejoin="miter" stroke-miterlimit="10" stroke-opacity="1" fill="none" fill-rule="nonzero" transform="matrix(1 0 0 1.00001 280 -0.00313046)"/></g></g></svg>