<svg width="720" height="493" xmlns="http://www.w3.org/2000/svg" xmlns:xlink="http://www.w3.org/1999/xlink" xml:space="preserve" overflow="hidden"><g transform="translate(-280 -105)"><g><g><g><path d="M373.719 581.549C373.349 581.414 372.977 581.288 372.608 581.151 372.5 581.285 372.386 581.414 372.277 581.548L121.395 581.549C98.3526 553.536 84.3934 517.856 84.3934 479.263 84.3934 419.566 116.662 367.41 164.708 339.277 202.015 317.432 233.543 286.896 255.732 249.792 296.032 182.406 370.061 137.518 454.508 138.464 580.313 139.873 681.992 244.223 680.291 370.024 678.975 467.338 616.803 549.953 530.105 581.548L373.719 581.548Z" fill="#FFFFFF" fill-rule="nonzero" fill-opacity="1" transform="matrix(1 0 0 1.00068 280 -0.574663)"/><path d="M52.4425 347.224 38.047 251.172 186.227 251.172 186.227 347.224 52.4425 347.224Z" stroke="#1D1D1B" stroke-width="0.718618" stroke-linecap="butt" stroke-linejoin="miter" stroke-miterlimit="10" stroke-opacity="1" fill="#F58437" fill-rule="nonzero" fill-opacity="1" transform="matrix(1 0 0 1.00068 280 -0.574663)"/><path d="M52.4425 347.224 52.4425 267.731C52.4425 258.585 59.856 251.173 69.0001 251.173L186.227 251.173 186.227 347.224 52.4425 347.224Z" stroke="#1D1D1B" stroke-width="0.718618" stroke-linecap="butt" stroke-linejoin="miter" stroke-miterlimit="10" stroke-opacity="1" fill="#E66821" fill-rule="nonzero" fill-opacity="1" transform="matrix(1 0 0 1.00068 280 -0.574663)"/><path d="M73.2697 148.015 134.526 148.015 134.526 212.213 73.2697 212.213Z" stroke="#1D1D1B" stroke-width="0.718618" stroke-linecap="butt" stroke-linejoin="miter" stroke-miterlimit="10" stroke-opacity="1" fill="#F58437" fill-rule="evenodd" fill-opacity="1" transform="matrix(1 0 0 1.00068 280 -0.574663)"/><path d="M201.909 118.992 241.058 118.992 241.058 160.022 201.909 160.022Z" stroke="#1D1D1B" stroke-width="0.718618" stroke-linecap="butt" stroke-linejoin="miter" stroke-miterlimit="10" stroke-opacity="1" fill="#F58437" fill-rule="evenodd" fill-opacity="1" transform="matrix(1 0 0 1.00068 280 -0.574663)"/><path d="M220.834 326.518 91.5243 326.518 91.5246 409.133 190.284 409.133 205.591 426.992 205.591 409.133 220.834 409.133 220.834 326.518Z" stroke="#1D1D1B" stroke-width="0.718618" stroke-linecap="butt" stroke-linejoin="miter" stroke-miterlimit="10" stroke-opacity="1" fill="#FFFFFF" fill-rule="nonzero" fill-opacity="1" transform="matrix(1 0 0 1.00068 280 -0.574663)"/><path d="M221.757 138.704 156.089 138.704 156.089 229.363 197.109 229.363 210.877 245.426 210.877 229.363 221.757 229.363 221.757 138.704Z" stroke="#1D1D1B" stroke-width="0.718618" stroke-linecap="butt" stroke-linejoin="miter" stroke-miterlimit="10" stroke-opacity="1" fill="#FFFFFF" fill-rule="nonzero" fill-opacity="1" transform="matrix(1 0 0 1.00068 280 -0.574663)"/><path d="M338.879 210.741 494.65 214.824C542.928 216.089 581.106 256.134 580.067 304.418L570.7 582.094 388.864 581.223 400.136 457.238 375.633 299.442 265.861 285.72 338.879 210.741Z" fill="#3F51B5" fill-rule="nonzero" fill-opacity="1" transform="matrix(1 0 0 1.00068 280 -0.574663)"/><path d="M400.626 459.2 399.921 459.609 388.865 581.224 570.701 582.095 574.742 460.071 400.626 459.2Z" fill="#01BCFF" fill-rule="nonzero" fill-opacity="1" transform="matrix(1 0 0 1.00068 280 -0.574663)"/><path d="M505.745 351.266 505.745 299.198" stroke="#1D1D1B" stroke-width="0.718618" stroke-linecap="round" stroke-linejoin="miter" stroke-miterlimit="10" stroke-opacity="1" fill="none" fill-rule="nonzero" transform="matrix(1 0 0 1.00068 280 -0.574663)"/><path d="M494.962 308.753 505.498 335.706" stroke="#1D1D1B" stroke-width="0.718618" stroke-linecap="round" stroke-linejoin="miter" stroke-miterlimit="10" stroke-opacity="1" fill="none" fill-rule="nonzero" transform="matrix(1 0 0 1.00068 280 -0.574663)"/><path d="M334.583 294.311 338.879 210.741 265.861 285.72 334.583 294.311Z" fill="#FF9492" fill-rule="nonzero" fill-opacity="1" transform="matrix(1 0 0 1.00068 280 -0.574663)"/><path d="M448.114 279.705C473.582 279.705 494.228 259.059 494.228 233.591 494.228 226.779 492.739 220.32 490.087 214.502L407.196 212.329C403.882 218.693 401.998 225.92 401.998 233.591 401.999 259.059 422.647 279.705 448.114 279.705Z" fill="#FF9492" fill-rule="nonzero" fill-opacity="1" transform="matrix(1 0 0 1.00068 280 -0.574663)"/><path d="M435.666 220.543 421.21 249.947 443.751 272.244" stroke="#1D1D1B" stroke-width="0.718618" stroke-linecap="butt" stroke-linejoin="miter" stroke-miterlimit="10" stroke-opacity="1" fill="#FF9492" fill-rule="nonzero" fill-opacity="1" transform="matrix(1 0 0 1.00068 280 -0.574663)"/><path d="M378.677 190.759C395.961 173.475 424.026 173.475 441.311 190.759 458.595 208.043 458.595 236.108 441.311 253.392 424.026 270.676 395.961 270.676 378.677 253.392 361.393 236.108 361.393 208.043 378.677 190.759Z" fill="#FF9492" fill-rule="evenodd" fill-opacity="1" transform="matrix(1 0 0 1.00068 280 -0.574663)"/><path d="M378.677 190.759C395.961 173.475 424.026 173.475 441.311 190.759 458.595 208.043 458.595 236.108 441.311 253.392 424.026 270.676 395.961 270.676 378.677 253.392 361.393 236.108 361.393 208.043 378.677 190.759Z" stroke="#1D1D1B" stroke-width="0.718618" stroke-linecap="round" stroke-linejoin="miter" stroke-miterlimit="10" stroke-opacity="1" fill="none" fill-rule="evenodd" transform="matrix(1 0 0 1.00068 280 -0.574663)"/><path d="M368.281 204.616 452.081 206.454 434.385 146.329C429.728 130.507 408.184 128.39 400.536 143.001L368.281 204.616Z" fill="#F58450" fill-rule="nonzero" fill-opacity="1" transform="matrix(1 0 0 1.00068 280 -0.574663)"/><path d="M384.775 233.968C385.274 236.715 384.425 239.17 382.878 239.45 381.33 239.732 379.67 237.734 379.169 234.989 378.67 232.242 379.519 229.788 381.067 229.507 382.616 229.225 384.275 231.223 384.775 233.968Z" fill="#1D1D1B" fill-rule="nonzero" fill-opacity="1" transform="matrix(1 0 0 1.00068 280 -0.574663)"/><path d="M409.218 231.763C409.718 234.51 408.869 236.964 407.321 237.245 405.774 237.527 404.114 235.529 403.613 232.784 403.113 230.037 403.963 227.583 405.51 227.302 407.059 227.02 408.719 229.018 409.218 231.763Z" fill="#1D1D1B" fill-rule="nonzero" fill-opacity="1" transform="matrix(1 0 0 1.00068 280 -0.574663)"/><path d="M389.232 222.626 393.267 232.716C393.828 234.118 393.913 235.667 393.51 237.123L391.678 243.736C391.151 245.633 392.351 247.578 394.283 247.958L398.789 248.846" stroke="#1D1D1B" stroke-width="0.718618" stroke-linecap="round" stroke-linejoin="miter" stroke-miterlimit="10" stroke-opacity="1" fill="none" fill-rule="nonzero" transform="matrix(1 0 0 1.00068 280 -0.574663)"/><path d="M373.706 223.545 379.678 216.102" stroke="#1D1D1B" stroke-width="2.87793" stroke-linecap="round" stroke-linejoin="miter" stroke-miterlimit="10" stroke-opacity="1" fill="none" fill-rule="nonzero" transform="matrix(1 0 0 1.00068 280 -0.574663)"/><path d="M401.179 215.551C401.454 215.459 412.296 219.226 412.296 219.226" stroke="#1D1D1B" stroke-width="2.87793" stroke-linecap="round" stroke-linejoin="miter" stroke-miterlimit="10" stroke-opacity="1" fill="none" fill-rule="nonzero" transform="matrix(1 0 0 1.00068 280 -0.574663)"/><path d="M401.638 254.418C401.638 254.418 404.395 249.089 410.276 248.997" stroke="#1D1D1B" stroke-width="0.718618" stroke-linecap="round" stroke-linejoin="miter" stroke-miterlimit="10" stroke-opacity="1" fill="none" fill-rule="nonzero" transform="matrix(1 0 0 1.00068 280 -0.574663)"/><path d="M463.353 215.643C463.353 208.278 456.982 202.401 449.45 203.224 443.692 203.853 439.025 208.557 438.429 214.32 438.252 216.027 438.422 217.671 438.875 219.193 439.439 221.086 440.441 222.792 441.76 224.194 441.047 225.121 440.514 226.192 440.218 227.359 439.922 228.525 439.863 229.786 440.097 231.091 440.764 234.786 443.879 237.691 447.607 238.126 452.878 238.739 457.35 234.636 457.35 229.489 457.35 229.353 457.348 229.218 457.34 229.084 457.265 227.506 457.976 226.034 459.157 224.984 461.732 222.694 463.353 219.359 463.353 215.643Z" fill="#FF9492" fill-rule="nonzero" fill-opacity="1" transform="matrix(1 0 0 1.00068 280 -0.574663)"/><path d="M440.098 231.089C440.765 234.785 443.88 237.689 447.608 238.124 452.878 238.737 457.351 234.635 457.351 229.487 457.351 229.352 457.348 229.216 457.341 229.083 457.266 227.505 457.977 226.032 459.158 224.983 461.731 222.694 463.354 219.359 463.354 215.643 463.354 208.278 456.982 202.4 449.451 203.224 443.693 203.853 439.026 208.557 438.43 214.32 438.253 216.027 438.423 217.671 438.876 219.193" stroke="#1D1D1B" stroke-width="0.718618" stroke-linecap="butt" stroke-linejoin="miter" stroke-miterlimit="10" stroke-opacity="1" fill="none" fill-rule="nonzero" transform="matrix(1 0 0 1.00068 280 -0.574663)"/><path d="M371.494 273.36 375.634 299.442" stroke="#1D1D1B" stroke-width="0.718618" stroke-linecap="butt" stroke-linejoin="miter" stroke-miterlimit="10" stroke-opacity="1" fill="none" fill-rule="nonzero" transform="matrix(1 0 0 1.00068 280 -0.574663)"/><path d="M542.401 459.701 542.401 582.094" stroke="#1D1D1B" stroke-width="0.718618" stroke-linecap="butt" stroke-linejoin="miter" stroke-miterlimit="10" stroke-opacity="1" fill="none" fill-rule="nonzero" transform="matrix(1 0 0 1.00068 280 -0.574663)"/><path d="M505.745 328.294 502.804 400.333 424.15 495.894 417.236 494.682C403.213 492.225 388.776 494.951 376.617 502.353L351.839 514.982C347.536 517.176 345.474 522.405 347.536 526.772 349.671 531.291 355.1 533.122 359.52 530.869L390.373 516.554 369.923 534.459C366.289 537.641 365.571 543.216 368.643 546.943 371.821 550.801 377.532 551.244 381.266 547.975L383.132 546.341C382.81 548.855 383.556 551.495 385.444 553.505 388.739 557.015 394.339 557.028 397.962 553.856L399.543 552.472C398.784 555.233 399.38 558.31 401.407 560.626 404.615 564.291 410.19 564.661 413.855 561.452L430.631 546.763C431.334 546.148 431.912 545.444 432.371 544.686L452.564 542.601C463.462 541.476 473.574 536.401 480.987 528.334L564.017 437.988C572.142 429.864 576.802 418.909 577.019 407.421L579.338 328.491 505.745 328.294Z" fill="#FF9492" fill-rule="nonzero" fill-opacity="1" transform="matrix(1 0 0 1.00068 280 -0.574663)"/><path d="M430.628 546.765 413.852 561.454C410.187 564.662 404.615 564.293 401.405 560.627 398.196 556.963 398.566 551.389 402.231 548.18L419.007 533.491" stroke="#1D1D1B" stroke-width="0.718618" stroke-linecap="round" stroke-linejoin="miter" stroke-miterlimit="10" stroke-opacity="1" fill="none" fill-rule="nonzero" transform="matrix(1 0 0 1.00068 280 -0.574663)"/><path d="M399.541 552.472 397.681 554.1C394.016 557.309 388.444 556.941 385.234 553.274 382.025 549.609 382.394 544.037 386.06 540.826L409.507 520.297" stroke="#1D1D1B" stroke-width="0.718618" stroke-linecap="round" stroke-linejoin="miter" stroke-miterlimit="10" stroke-opacity="1" fill="none" fill-rule="nonzero" transform="matrix(1 0 0 1.00068 280 -0.574663)"/><path d="M383.13 546.343 381.265 547.977C377.6 551.186 372.026 550.816 368.817 547.151 365.608 543.486 365.978 537.912 369.644 534.703L399.923 508.191" stroke="#1D1D1B" stroke-width="0.718618" stroke-linecap="round" stroke-linejoin="miter" stroke-miterlimit="10" stroke-opacity="1" fill="none" fill-rule="nonzero" transform="matrix(1 0 0 1.00068 280 -0.574663)"/><path d="M424.147 495.895 515.935 384.542" stroke="#1D1D1B" stroke-width="0.718618" stroke-linecap="butt" stroke-linejoin="miter" stroke-miterlimit="10" stroke-opacity="1" fill="none" fill-rule="nonzero" transform="matrix(1 0 0 1.00068 280 -0.574663)"/><path d="M377.426 182.391C377.075 182.188 376.708 182.041 376.341 181.902L376.407 181.788C377.908 179.187 378.002 175.941 376.457 173.365 375.237 171.33 373.596 170.551 371.914 170.211 373.273 166.864 372.024 162.951 368.808 161.094 366.037 159.495 362.677 159.928 360.375 161.895 356.889 160.013 352.519 161.218 350.526 164.672L339.423 183.904C339.166 184.349 338.962 184.81 338.808 185.279L335.254 192.302C332.91 196.93 328.527 200.188 323.419 201.096L259.494 212.457 259.557 212.649C242.628 215.935 229.845 230.832 229.845 248.721 229.845 269.02 246.3 285.475 266.599 285.475 273.064 285.475 279.136 283.8 284.415 280.868L349.249 248.909C369.021 238.92 371.471 208.291 371.471 208.291L371.113 208.031 380.118 192.432C382.147 188.916 380.942 184.421 377.426 182.391Z" stroke="#1D1D1B" stroke-width="0.718618" stroke-linecap="butt" stroke-linejoin="miter" stroke-miterlimit="10" stroke-opacity="1" fill="#FF9492" fill-rule="nonzero" fill-opacity="1" transform="matrix(1 0 0 1.00068 280 -0.574663)"/><path d="M356.818 203.384 367.384 185.081C369.414 181.566 373.909 180.361 377.425 182.391 380.94 184.421 382.145 188.916 380.115 192.432L369.548 210.734" stroke="#1D1D1B" stroke-width="0.718618" stroke-linecap="round" stroke-linejoin="miter" stroke-miterlimit="10" stroke-opacity="1" fill="none" fill-rule="nonzero" transform="matrix(1 0 0 1.00068 280 -0.574663)"/><path d="M351.622 195.305 364.095 173.709C366.125 170.194 370.621 168.989 374.136 171.019 377.652 173.048 378.856 177.544 376.827 181.06" stroke="#1D1D1B" stroke-width="0.718618" stroke-linecap="round" stroke-linejoin="miter" stroke-miterlimit="10" stroke-opacity="1" fill="none" fill-rule="nonzero" transform="matrix(1 0 0 1.00068 280 -0.574663)"/><path d="M343.658 190.283 358.765 163.787C360.795 160.271 365.29 159.066 368.806 161.096 372.023 162.954 373.305 166.877 371.944 170.224" stroke="#1D1D1B" stroke-width="0.718618" stroke-linecap="round" stroke-linejoin="miter" stroke-miterlimit="10" stroke-opacity="1" fill="none" fill-rule="nonzero" transform="matrix(1 0 0 1.00068 280 -0.574663)"/><path d="M446.224 228.433C446.224 228.433 444.522 214.655 455.801 214.496" stroke="#1D1D1B" stroke-width="0.718618" stroke-linecap="butt" stroke-linejoin="miter" stroke-miterlimit="10" stroke-opacity="1" fill="none" fill-rule="nonzero" transform="matrix(1 0 0 1.00068 280 -0.574663)"/><path d="M446.283 224.564C446.283 224.564 449.017 219.384 453.715 221.681" stroke="#1D1D1B" stroke-width="0.718618" stroke-linecap="butt" stroke-linejoin="miter" stroke-miterlimit="10" stroke-opacity="1" fill="none" fill-rule="nonzero" transform="matrix(1 0 0 1.00068 280 -0.574663)"/><path d="M615.508 548.575C615.508 562.106 604.539 573.075 591.008 573.075 577.477 573.075 566.508 562.106 566.508 548.575 566.508 535.044 577.477 524.075 591.008 524.075 604.539 524.075 615.508 535.044 615.508 548.575Z" stroke="#1D1D1B" stroke-width="0.718618" stroke-linecap="butt" stroke-linejoin="miter" stroke-miterlimit="10" stroke-opacity="1" fill="none" fill-rule="evenodd" transform="matrix(1 0 0 1.00068 280 -0.574663)"/><path d="M576.933 581.728 530.331 581.728 518.081 516.674 589.182 516.674 576.933 581.728Z" fill="#F58437" fill-rule="nonzero" fill-opacity="1" transform="matrix(1 0 0 1.00068 280 -0.574663)"/><path d="M306.536 581.224 154.129 581.224 110.943 455.28 263.349 455.28 306.536 581.224Z" stroke="#1D1D1B" stroke-width="0.718618" stroke-linecap="butt" stroke-linejoin="miter" stroke-miterlimit="10" stroke-opacity="1" fill="#FFFFFF" fill-rule="nonzero" fill-opacity="1" transform="matrix(1 0 0 1.00068 280 -0.574663)"/><path d="M151.801 575.098 404.302 575.098 404.302 581.346 151.801 581.346Z" stroke="#1D1D1B" stroke-width="0.718618" stroke-linecap="butt" stroke-linejoin="miter" stroke-miterlimit="10" stroke-opacity="1" fill="#FFFFFF" fill-rule="evenodd" fill-opacity="1" transform="matrix(1 0 0 1.00068 280 -0.574663)"/><path d="M634.384 582.205 101.204 582.205" stroke="#1D1D1B" stroke-width="1.44069" stroke-linecap="round" stroke-linejoin="miter" stroke-miterlimit="10" stroke-opacity="1" fill="none" fill-rule="nonzero" transform="matrix(1 0 0 1.00068 280 -0.574663)"/></g></g></g></g></svg>